<?xml version="1.0" encoding="UTF-8" standalone="no"?>
<!DOCTYPE svg PUBLIC "-//W3C//DTD SVG 1.1//EN" "http://www.w3.org/Graphics/SVG/1.1/DTD/svg11.dtd">
<svg width="100%" height="100%" viewBox="0 0 800 300" version="1.1" xmlns="http://www.w3.org/2000/svg" xmlns:xlink="http://www.w3.org/1999/xlink" xml:space="preserve" xmlns:serif="http://www.serif.com/" style="fill-rule:evenodd;clip-rule:evenodd;stroke-linejoin:round;stroke-miterlimit:2;">
    <g transform="matrix(0.564009,0,0,0.564009,19.8371,72.5414)">
        <path d="M195.123,68.216L195.123,211.757C195.123,225.99 183.566,237.547 169.331,237.547L25.791,237.547C11.556,237.547 0,225.99 0,211.757L0,68.216C0,53.981 11.556,42.425 25.791,42.425L169.331,42.425C183.566,42.425 195.123,53.981 195.123,68.216ZM28.787,115.918C18.088,120.322 13.939,134.917 19.526,148.49C25.113,162.064 38.335,169.508 49.034,165.104C59.733,160.7 63.883,146.104 58.296,132.531C52.708,118.958 39.486,111.514 28.787,115.918ZM69.042,65.707C57.575,67.251 50.273,83.407 52.744,101.762C55.215,120.117 66.531,133.766 77.997,132.222C89.464,130.679 96.767,114.523 94.295,96.168C91.824,77.812 80.508,64.163 69.042,65.707ZM166.075,133.608C155.376,129.204 142.154,136.648 136.567,150.222C130.979,163.795 135.129,178.39 145.828,182.794C156.527,187.198 169.749,179.754 175.337,166.181C180.924,152.608 176.774,138.012 166.075,133.608ZM124.174,216.334C129.369,220.483 129.337,203.829 129.337,197.065C129.337,175.796 112.069,158.528 90.8,158.528C69.531,158.528 52.263,175.796 52.263,197.065C52.263,203.829 51.44,219.227 57.426,216.334C68.776,210.846 114.318,208.459 124.174,216.334ZM124.707,81.393C113.241,79.85 101.925,93.498 99.454,111.854C96.983,130.209 104.285,146.365 115.752,147.909C127.218,149.453 138.534,135.804 141.005,117.448C143.477,99.093 136.174,82.937 124.707,81.393Z" style="fill:rgb(50,50,50);"/>
    </g>
    <g transform="matrix(1,0,0,1,-85.2934,41.041)">
        <g transform="matrix(125,0,0,125,866.905,160.834)">
        </g>
        <text x="226.28px" y="160.834px" style="font-family:'Futura-Bold', 'Futura', sans-serif;font-weight:700;font-size:125px;fill:rgb(50,50,50);">se<tspan x="367.405px 460.155px " y="160.834px 160.834px ">xy</tspan>bar<tspan x="779.655px " y="160.834px ">k</tspan></text>
    </g>
</svg>
